# xmcd CD database file
#
# Track frame offsets:
#	150
#	18272
#	37049
#	55014
#
# Disc length: 973 seconds
#
# Revision: 0
# Processed by: cddbd v1.5.1PL0 Copyright (c) Steve Scherf et al.
# Submitted via: CDex 1.51
#
DISCID=2803cb04
DTITLE=森山良子 - ことばは風
DYEAR=2003
DGENRE=Jazz
TTITLE0=ことばは風
TTITLE1=Tink Tink
TTITLE2=ことばは風〜アコースティック・ヴァージョン〜
TTITLE3=ことばは風(カラオケ)
EXTD=YEAR: 2003
EXTT0=
EXTT1=
EXTT2=
EXTT3=
PLAYORDER=
